<svg xmlns="http://www.w3.org/2000/svg" viewBox="0 0 805.88 805.88"><defs><style>.cls-1{fill:none;}.cls-2{fill:#8560a8;}.cls-2,.cls-3,.cls-4,.cls-5,.cls-6{fill-rule:evenodd;}.cls-3{fill:#533279;}.cls-4{fill:#6e4b9d;}.cls-5{fill:#36246a;}.cls-6{fill:#ad95c7;}</style></defs><title>Asset 2</title><g id="Layer_2" data-name="Layer 2"><g id="Layer_4" data-name="Layer 4"><rect class="cls-1" width="805.88" height="805.88"/><path class="cls-2" d="M700.11,171.83l51.35,29.64V604.41L577,705.15l-76.84,44.36L604.55,553.27h0a250.69,250.69,0,0,0,49.78-150.32c0-103.36-62.32-192.19-151.41-231v0H699.44Z"/><path class="cls-3" d="M463.24,770.82,402.5,805.88,228,705.15,53.54,604.41V313.91l109,165.7,0,0C195,581.2,290.18,654.78,402.5,654.78a250.64,250.64,0,0,0,148.78-48.67h0Z"/><path class="cls-4" d="M402.5,0,577,100.74l87.23,50.37h-259l-.05,0c-.9,0-1.79,0-2.69,0-139.06,0-251.84,112.77-251.84,251.83,0,5.53.2,11,.55,16.43l0,0L53.54,269.87v-68.4L228,100.74Z"/><path class="cls-5" d="M435.54,185.92c4.27,6.21,9,14.66,15.59,26.34,3.53,6.29,7.54,13.41,12.23,21.56l67,116.24,65.68,113.85c6.91,12,11.44,22,13.83,30.67a59,59,0,0,1,1.81,9.2,227.75,227.75,0,0,0,23.38-100.84C635.11,283.22,543.15,185,426,175A52.68,52.68,0,0,1,435.54,185.92Z"/><path class="cls-5" d="M575.08,544.15c-25.77,0-65.13-19.4-117.91-46.81-17.83-9.25-41.76-21.68-50.84-24.59-9.07,2.9-33,15.31-50.85,24.56C302.71,524.66,263.36,544,237.6,544a44.7,44.7,0,0,1-12.75-1.74,228.78,228.78,0,0,0,362.8.17A44.44,44.44,0,0,1,575.08,544.15Z"/><path class="cls-5" d="M202.75,494.43c2.4-8.65,6.93-18.68,13.86-30.67L282.37,350l67.14-116.19c5.13-8.88,9.38-16.49,13.13-23.2,6.21-11.13,10.69-19.18,14.89-25.18A50.15,50.15,0,0,1,386.79,175c-117.21,9.91-209.27,108.18-209.27,228A227.85,227.85,0,0,0,200.91,503.8,59.07,59.07,0,0,1,202.75,494.43Z"/><path class="cls-2" d="M442.38,245.92l67.05,116.24L575.11,476c64.53,111.87-135.93-24.95-167.76-27.8l-1,0-1,0C373.5,451,173,587.7,237.58,475.88l65.77-113.8,67.14-116.19c21.67-37.51,28.51-54,36-54.06,6.88-.07,14.28,16.56,35.93,54.09Z"/><path class="cls-6" d="M406.34,448.23l-1,0C373.5,451,173,587.7,237.58,475.88l65.77-113.8,67.14-116.19c21.67-37.51,28.51-54,36-54.06Z"/></g></g></svg>