<svg xmlns="http://www.w3.org/2000/svg" viewBox="0 0 805.88 806.65"><title>found3-logo-bg</title><g id="Layer_2" data-name="Layer 2"><g id="Layer_4" data-name="Layer 4"><rect y="0.55" width="805.88" height="805.88" style="fill:none"/><path d="M402.17,27.18,727.92,215.25V591.4L402.17,779.47,76.42,591.4V215.25Zm0,0L76.42,215.25V591.4L402.17,779.47,727.92,591.4V215.25L402.17,27.18m0-27.18,11.77,6.79L739.69,194.87l11.77,6.79V605l-11.77,6.8L413.94,799.85l-11.77,6.8-11.77-6.8L64.65,611.78,52.88,605V201.66l11.77-6.79L390.4,6.79,402.17,0Z" style="fill:#fff;fill-rule:evenodd"/><path d="M682.35,186.27l48.34,27.91V593.51L566.43,688.35l-72.34,41.76,98.3-184.75h0a236,236,0,0,0,46.86-141.51c0-97.31-58.66-180.93-142.54-217.46v0h185Z" style="fill:#8560a8;fill-rule:evenodd"/><path d="M459.35,750.17l-57.18,33L237.91,688.35,73.65,593.51V320L176.28,476l0,0c30.55,95.62,120.13,164.89,225.87,164.89a235.94,235.94,0,0,0,140.07-45.82h0Z" style="fill:#533279;fill-rule:evenodd"/><path d="M402.17,24.5l164.26,94.84,82.13,47.42H404.75l0,0c-.85,0-1.69,0-2.54,0-130.92,0-237.09,106.17-237.09,237.08,0,5.2.19,10.36.52,15.47h0L73.65,278.56V214.18l164.26-94.84Z" style="fill:#6e4b9d;fill-rule:evenodd"/><path d="M433.27,199.54c4,5.84,8.5,13.79,14.68,24.79,3.33,5.92,7.1,12.63,11.52,20.29l63.12,109.43,61.83,107.19c6.51,11.28,10.77,20.73,13,28.88a55.26,55.26,0,0,1,1.71,8.65,214.42,214.42,0,0,0,22-94.93c0-112.71-86.57-205.18-196.84-214.59A49.18,49.18,0,0,1,433.27,199.54Z" style="fill:#36246a;fill-rule:evenodd"/><path d="M564.64,536.78c-24.26,0-61.31-18.26-111-44.06-16.79-8.72-39.32-20.42-47.86-23.15-8.54,2.73-31.08,14.41-47.87,23.11-49.69,25.75-86.73,44-111,44a42,42,0,0,1-12-1.64,215.38,215.38,0,0,0,341.55.16A41.76,41.76,0,0,1,564.64,536.78Z" style="fill:#36246a;fill-rule:evenodd"/><path d="M214.12,490c2.26-8.15,6.53-17.6,13-28.88L289.08,354l63.21-109.39c4.83-8.36,8.83-15.52,12.35-21.84,5.85-10.48,10.07-18.06,14-23.71a47.45,47.45,0,0,1,8.73-9.79c-110.36,9.32-197,101.84-197,214.6a214.51,214.51,0,0,0,22,95A56.08,56.08,0,0,1,214.12,490Z" style="fill:#36246a;fill-rule:evenodd"/><path d="M439.71,256l63.13,109.43,61.83,107.18c60.75,105.32-128-23.49-157.93-26.17l-.95,0-1,0c-30,2.66-218.76,131.32-157.93,26.05l61.92-107.13L372,256c20.41-35.31,26.85-50.82,33.86-50.9,6.48-.06,13.45,15.6,33.82,50.93Z" style="fill:#8560a8;fill-rule:evenodd"/><path d="M405.79,446.48l-1,0c-30,2.66-218.76,131.32-157.93,26.05l61.92-107.13L372,256c20.41-35.31,26.85-50.82,33.86-50.9Z" style="fill:#ad95c7;fill-rule:evenodd"/></g></g></svg>